<svg id="mol6" xmlns="http://www.w3.org/2000/svg" version="1.1" width="85px" height="56px" viewBox="111 72 85 56">
  <style> text {font-family: sans-serif;} #mol6 { pointer-events:none; } #mol6 .event  { pointer-events:all; } line { stroke-linecap:round; } polygon { stroke-linejoin:round; } </style>
  <text x="174.57" y="116.67" stroke="none" font-size="14" fill="rgb(31,240,31)">Cl</text>
  <line x1="172.39" y1="79.22" x2="160.39" y2="100" stroke="rgb(0,0,0)" stroke-width="1.44" />
  <line x1="160.39" y1="100" x2="139.61" y2="88" stroke="rgb(0,0,0)" stroke-width="1.44" />
  <line x1="139.61" y1="88" x2="118.82" y2="100" stroke="rgb(0,0,0)" stroke-width="1.44" />
  <line x1="160.39" y1="100" x2="173.57" y2="107.61" stroke="rgb(0,0,0)" stroke-width="1.44" />
  <line x1="160.39" y1="100" x2="148.39" y2="120.78" stroke="rgb(0,0,0)" stroke-width="1.44" />
  <line id="mol6:Bond:0" class="event" x1="172.39" y1="79.22" x2="160.39" y2="100" stroke-width="8" opacity="0" />
  <line id="mol6:Bond:1" class="event" x1="160.39" y1="100" x2="139.61" y2="88" stroke-width="8" opacity="0" />
  <line id="mol6:Bond:2" class="event" x1="139.61" y1="88" x2="118.82" y2="100" stroke-width="8" opacity="0" />
  <line id="mol6:Bond:3" class="event" x1="160.39" y1="100" x2="181.18" y2="112" stroke-width="8" opacity="0" />
  <line id="mol6:Bond:4" class="event" x1="160.39" y1="100" x2="148.39" y2="120.78" stroke-width="8" opacity="0" />
  <circle id="mol6:Atom:0" class="event" cx="172.39" cy="79.22" r="8" opacity="0" />
  <circle id="mol6:Atom:1" class="event" cx="160.39" cy="100" r="8" opacity="0" />
  <circle id="mol6:Atom:2" class="event" cx="139.61" cy="88" r="8" opacity="0" />
  <circle id="mol6:Atom:3" class="event" cx="118.82" cy="100" r="8" opacity="0" />
  <circle id="mol6:Atom:4" class="event" cx="181.18" cy="112" r="8" opacity="0" />
  <circle id="mol6:Atom:5" class="event" cx="148.39" cy="120.78" r="8" opacity="0" />
</svg>