<svg id="mol9" xmlns="http://www.w3.org/2000/svg" version="1.1" width="77px" height="82px" viewBox="111 56 77 82">
  <style> text {font-family: sans-serif;} #mol9 { pointer-events:none; } #mol9 .event  { pointer-events:all; } line { stroke-linecap:round; } polygon { stroke-linejoin:round; } </style>
  <text x="134.16" y="74.67" stroke="none" font-size="14" fill="rgb(255,13,13)">O</text>
  <line x1="141.41" y1="95.04" x2="141.41" y2="77" stroke="rgb(0,0,0)" stroke-width="1.44" />
  <line x1="137.81" y1="95.04" x2="137.81" y2="77" stroke="rgb(0,0,0)" stroke-width="1.44" />
  <line x1="181.18" y1="94" x2="160.39" y2="106" stroke="rgb(0,0,0)" stroke-width="1.44" />
  <line x1="160.39" y1="106" x2="160.39" y2="130" stroke="rgb(0,0,0)" stroke-width="1.44" />
  <line x1="160.39" y1="106" x2="139.61" y2="94" stroke="rgb(0,0,0)" stroke-width="1.44" />
  <line x1="139.61" y1="94" x2="118.82" y2="106" stroke="rgb(0,0,0)" stroke-width="1.44" />
  <line id="mol9:Bond:3" class="event" x1="139.61" y1="94" x2="139.61" y2="70" stroke-width="8" opacity="0" />
  <line id="mol9:Bond:0" class="event" x1="181.18" y1="94" x2="160.39" y2="106" stroke-width="8" opacity="0" />
  <line id="mol9:Bond:1" class="event" x1="160.39" y1="106" x2="160.39" y2="130" stroke-width="8" opacity="0" />
  <line id="mol9:Bond:2" class="event" x1="160.39" y1="106" x2="139.61" y2="94" stroke-width="8" opacity="0" />
  <line id="mol9:Bond:4" class="event" x1="139.61" y1="94" x2="118.82" y2="106" stroke-width="8" opacity="0" />
  <circle id="mol9:Atom:0" class="event" cx="181.18" cy="94" r="8" opacity="0" />
  <circle id="mol9:Atom:1" class="event" cx="160.39" cy="106" r="8" opacity="0" />
  <circle id="mol9:Atom:2" class="event" cx="160.39" cy="130" r="8" opacity="0" />
  <circle id="mol9:Atom:3" class="event" cx="139.61" cy="94" r="8" opacity="0" />
  <circle id="mol9:Atom:4" class="event" cx="139.61" cy="70" r="8" opacity="0" />
  <circle id="mol9:Atom:5" class="event" cx="118.82" cy="106" r="8" opacity="0" />
</svg>