<svg id="mol24" xmlns="http://www.w3.org/2000/svg" version="1.1" width="98px" height="58px" viewBox="101 68 98 58">
  <style> text {font-family: sans-serif;} #mol24 { pointer-events:none; } #mol24 .event  { pointer-events:all; } line { stroke-linecap:round; } polygon { stroke-linejoin:round; } </style>
  <text x="103.99" y="140.15" stroke="none" font-size="12" fill="rgb(160,0,0)">unknown chirality</text>
  <text x="123.77" y="86.67" stroke="none" font-size="14" fill="rgb(255,13,13)">O</text>
  <line x1="170.79" y1="82" x2="191.57" y2="94" stroke="rgb(0,0,0)" stroke-width="1.44" />
  <line x1="171.2" y1="86.4" x2="189.77" y2="97.12" stroke="rgb(0,0,0)" stroke-width="1.44" />
  <line x1="150" y1="118" x2="150" y2="106" stroke="rgb(0,0,0)" stroke-width="1.44" />
  <line x1="150" y1="106" x2="150" y2="94" stroke="rgb(192,0,255)" stroke-width="1.44" />
  <line x1="150" y1="94" x2="160.39" y2="88" stroke="rgb(192,0,255)" stroke-width="1.44" />
  <line x1="160.39" y1="88" x2="170.79" y2="82" stroke="rgb(0,0,0)" stroke-width="1.44" />
  <line x1="150" y1="94" x2="142.83" y2="89.86" stroke="rgb(192,0,255)" stroke-width="1.44" />
  <line x1="142.83" y1="89.86" x2="135.66" y2="85.72" stroke="rgb(0,0,0)" stroke-width="1.44" />
  <line x1="122.77" y1="85.72" x2="108.43" y2="94" stroke="rgb(0,0,0)" stroke-width="1.44" />
  <line id="mol24:Bond:2" class="event" x1="170.79" y1="82" x2="191.57" y2="94" stroke-width="8" opacity="0" />
  <line id="mol24:Bond:0" class="event" x1="150" y1="118" x2="150" y2="94" stroke-width="8" opacity="0" />
  <line id="mol24:Bond:1" class="event" x1="150" y1="94" x2="170.79" y2="82" stroke-width="8" opacity="0" />
  <line id="mol24:Bond:3" class="event" x1="150" y1="94" x2="129.21" y2="82" stroke-width="8" opacity="0" />
  <line id="mol24:Bond:4" class="event" x1="129.21" y1="82" x2="108.43" y2="94" stroke-width="8" opacity="0" />
  <circle id="mol24:Atom:0" class="event" cx="150" cy="118" r="8" opacity="0" />
  <circle id="mol24:Atom:1" class="event" cx="150" cy="94" r="8" opacity="0" />
  <circle id="mol24:Atom:2" class="event" cx="170.79" cy="82" r="8" opacity="0" />
  <circle id="mol24:Atom:3" class="event" cx="191.57" cy="94" r="8" opacity="0" />
  <circle id="mol24:Atom:4" class="event" cx="129.21" cy="82" r="8" opacity="0" />
  <circle id="mol24:Atom:5" class="event" cx="108.43" cy="94" r="8" opacity="0" />
</svg>