<svg id="mol27" xmlns="http://www.w3.org/2000/svg" version="1.1" width="98px" height="58px" viewBox="101 75 98 58">
  <style> text {font-family: sans-serif;} #mol27 { pointer-events:none; } #mol27 .event  { pointer-events:all; } line { stroke-linecap:round; } polygon { stroke-linejoin:round; } </style>
  <text x="144.56" y="122.67" stroke="none" font-size="14" fill="rgb(255,13,13)">O</text>
  <line x1="148.2" y1="92.96" x2="148.2" y2="111" stroke="rgb(0,0,0)" stroke-width="1.44" />
  <line x1="151.8" y1="92.96" x2="151.8" y2="111" stroke="rgb(0,0,0)" stroke-width="1.44" />
  <line x1="150" y1="94" x2="170.79" y2="82" stroke="rgb(0,0,0)" stroke-width="1.44" />
  <line x1="170.79" y1="82" x2="191.57" y2="94" stroke="rgb(0,0,0)" stroke-width="1.44" />
  <line x1="150" y1="94" x2="129.21" y2="82" stroke="rgb(0,0,0)" stroke-width="1.44" />
  <line x1="129.21" y1="82" x2="108.43" y2="94" stroke="rgb(0,0,0)" stroke-width="1.44" />
  <line id="mol27:Bond:0" class="event" x1="150" y1="118" x2="150" y2="94" stroke-width="8" opacity="0" />
  <line id="mol27:Bond:1" class="event" x1="150" y1="94" x2="170.79" y2="82" stroke-width="8" opacity="0" />
  <line id="mol27:Bond:2" class="event" x1="170.79" y1="82" x2="191.57" y2="94" stroke-width="8" opacity="0" />
  <line id="mol27:Bond:3" class="event" x1="150" y1="94" x2="129.21" y2="82" stroke-width="8" opacity="0" />
  <line id="mol27:Bond:4" class="event" x1="129.21" y1="82" x2="108.43" y2="94" stroke-width="8" opacity="0" />
  <circle id="mol27:Atom:0" class="event" cx="150" cy="118" r="8" opacity="0" />
  <circle id="mol27:Atom:1" class="event" cx="150" cy="94" r="8" opacity="0" />
  <circle id="mol27:Atom:2" class="event" cx="170.79" cy="82" r="8" opacity="0" />
  <circle id="mol27:Atom:3" class="event" cx="191.57" cy="94" r="8" opacity="0" />
  <circle id="mol27:Atom:4" class="event" cx="129.21" cy="82" r="8" opacity="0" />
  <circle id="mol27:Atom:5" class="event" cx="108.43" cy="94" r="8" opacity="0" />
</svg>