<svg id="mol28" xmlns="http://www.w3.org/2000/svg" version="1.1" width="98px" height="58px" viewBox="101 68 98 58">
  <style> text {font-family: sans-serif;} #mol28 { pointer-events:none; } #mol28 .event  { pointer-events:all; } line { stroke-linecap:round; } polygon { stroke-linejoin:round; } </style>
  <text x="123.77" y="86.67" stroke="none" font-size="14" fill="rgb(255,13,13)">O</text>
  <line x1="150" y1="118" x2="150" y2="94" stroke="rgb(0,0,0)" stroke-width="1.44" />
  <line x1="153.6" y1="118" x2="153.6" y2="96.56" stroke="rgb(0,0,0)" stroke-width="1.44" />
  <line x1="150" y1="94" x2="170.79" y2="82" stroke="rgb(0,0,0)" stroke-width="1.44" />
  <line x1="170.79" y1="82" x2="191.57" y2="94" stroke="rgb(0,0,0)" stroke-width="1.44" />
  <line x1="150" y1="94" x2="135.66" y2="85.72" stroke="rgb(0,0,0)" stroke-width="1.44" />
  <line x1="122.77" y1="85.72" x2="108.43" y2="94" stroke="rgb(0,0,0)" stroke-width="1.44" />
  <line id="mol28:Bond:0" class="event" x1="150" y1="118" x2="150" y2="94" stroke-width="8" opacity="0" />
  <line id="mol28:Bond:1" class="event" x1="150" y1="94" x2="170.79" y2="82" stroke-width="8" opacity="0" />
  <line id="mol28:Bond:2" class="event" x1="170.79" y1="82" x2="191.57" y2="94" stroke-width="8" opacity="0" />
  <line id="mol28:Bond:3" class="event" x1="150" y1="94" x2="129.21" y2="82" stroke-width="8" opacity="0" />
  <line id="mol28:Bond:4" class="event" x1="129.21" y1="82" x2="108.43" y2="94" stroke-width="8" opacity="0" />
  <circle id="mol28:Atom:0" class="event" cx="150" cy="118" r="8" opacity="0" />
  <circle id="mol28:Atom:1" class="event" cx="150" cy="94" r="8" opacity="0" />
  <circle id="mol28:Atom:2" class="event" cx="170.79" cy="82" r="8" opacity="0" />
  <circle id="mol28:Atom:3" class="event" cx="191.57" cy="94" r="8" opacity="0" />
  <circle id="mol28:Atom:4" class="event" cx="129.21" cy="82" r="8" opacity="0" />
  <circle id="mol28:Atom:5" class="event" cx="108.43" cy="94" r="8" opacity="0" />
</svg>