<svg id="mol16" xmlns="http://www.w3.org/2000/svg" version="1.1" width="98px" height="79px" viewBox="101 57 98 79">
  <style> text {font-family: sans-serif;} #mol16 { pointer-events:none; } #mol16 .event  { pointer-events:all; } line { stroke-linecap:round; } polygon { stroke-linejoin:round; } </style>
  <text x="165.34" y="76.27" stroke="none" font-size="14" fill="rgb(255,13,13)">O</text>
  <text x="123.77" y="100.27" stroke="none" font-size="14" fill="rgb(255,13,13)">O</text>
  <line x1="172.58" y1="96.65" x2="172.58" y2="78.61" stroke="rgb(0,0,0)" stroke-width="1.44" />
  <line x1="168.98" y1="96.65" x2="168.98" y2="78.61" stroke="rgb(0,0,0)" stroke-width="1.44" />
  <line x1="191.57" y1="107.61" x2="170.78" y2="95.61" stroke="rgb(0,0,0)" stroke-width="1.44" />
  <line x1="170.78" y1="95.61" x2="150" y2="107.61" stroke="rgb(0,0,0)" stroke-width="1.44" />
  <line x1="150" y1="107.61" x2="135.66" y2="99.33" stroke="rgb(0,0,0)" stroke-width="1.44" />
  <line x1="122.77" y1="99.33" x2="108.43" y2="107.61" stroke="rgb(0,0,0)" stroke-width="1.44" />
  <line x1="150" y1="107.61" x2="138" y2="128.39" stroke="rgb(0,0,0)" stroke-width="1.44" />
  <line x1="150" y1="107.61" x2="162" y2="128.39" stroke="rgb(0,0,0)" stroke-width="1.44" />
  <line id="mol16:Bond:1" class="event" x1="170.78" y1="95.61" x2="170.78" y2="71.61" stroke-width="8" opacity="0" />
  <line id="mol16:Bond:0" class="event" x1="191.57" y1="107.61" x2="170.78" y2="95.61" stroke-width="8" opacity="0" />
  <line id="mol16:Bond:2" class="event" x1="170.78" y1="95.61" x2="150" y2="107.61" stroke-width="8" opacity="0" />
  <line id="mol16:Bond:3" class="event" x1="150" y1="107.61" x2="129.21" y2="95.61" stroke-width="8" opacity="0" />
  <line id="mol16:Bond:4" class="event" x1="129.21" y1="95.61" x2="108.43" y2="107.61" stroke-width="8" opacity="0" />
  <line id="mol16:Bond:5" class="event" x1="150" y1="107.61" x2="138" y2="128.39" stroke-width="8" opacity="0" />
  <line id="mol16:Bond:6" class="event" x1="150" y1="107.61" x2="162" y2="128.39" stroke-width="8" opacity="0" />
  <circle id="mol16:Atom:0" class="event" cx="191.57" cy="107.61" r="8" opacity="0" />
  <circle id="mol16:Atom:1" class="event" cx="170.78" cy="95.61" r="8" opacity="0" />
  <circle id="mol16:Atom:2" class="event" cx="170.78" cy="71.61" r="8" opacity="0" />
  <circle id="mol16:Atom:3" class="event" cx="150" cy="107.61" r="8" opacity="0" />
  <circle id="mol16:Atom:4" class="event" cx="129.21" cy="95.61" r="8" opacity="0" />
  <circle id="mol16:Atom:5" class="event" cx="108.43" cy="107.61" r="8" opacity="0" />
  <circle id="mol16:Atom:6" class="event" cx="138" cy="128.39" r="8" opacity="0" />
  <circle id="mol16:Atom:7" class="event" cx="162" cy="128.39" r="8" opacity="0" />
</svg>