<svg id="mol17" xmlns="http://www.w3.org/2000/svg" version="1.1" width="98px" height="67px" viewBox="101 70 98 67">
  <style> text {font-family: sans-serif;} #mol17 { pointer-events:none; } #mol17 .event  { pointer-events:all; } line { stroke-linecap:round; } polygon { stroke-linejoin:round; } </style>
  <text x="165.34" y="127.06" stroke="none" font-size="14" fill="rgb(255,13,13)">O</text>
  <text x="144.55" y="91.06" stroke="none" font-size="14" fill="rgb(255,13,13)">O</text>
  <line x1="168.99" y1="97.35" x2="168.99" y2="115.39" stroke="rgb(0,0,0)" stroke-width="1.44" />
  <line x1="172.59" y1="97.35" x2="172.59" y2="115.39" stroke="rgb(0,0,0)" stroke-width="1.44" />
  <line x1="191.57" y1="86.39" x2="170.79" y2="98.39" stroke="rgb(0,0,0)" stroke-width="1.44" />
  <line x1="170.79" y1="98.39" x2="156.44" y2="90.11" stroke="rgb(0,0,0)" stroke-width="1.44" />
  <line x1="143.55" y1="90.11" x2="129.21" y2="98.39" stroke="rgb(0,0,0)" stroke-width="1.44" />
  <line x1="129.21" y1="98.39" x2="141.21" y2="119.18" stroke="rgb(0,0,0)" stroke-width="1.44" />
  <line x1="129.21" y1="98.39" x2="108.43" y2="110.39" stroke="rgb(0,0,0)" stroke-width="1.44" />
  <line x1="129.21" y1="98.39" x2="117.21" y2="77.61" stroke="rgb(0,0,0)" stroke-width="1.44" />
  <line id="mol17:Bond:1" class="event" x1="170.79" y1="98.39" x2="170.79" y2="122.39" stroke-width="8" opacity="0" />
  <line id="mol17:Bond:0" class="event" x1="191.57" y1="86.39" x2="170.79" y2="98.39" stroke-width="8" opacity="0" />
  <line id="mol17:Bond:2" class="event" x1="170.79" y1="98.39" x2="150" y2="86.39" stroke-width="8" opacity="0" />
  <line id="mol17:Bond:3" class="event" x1="150" y1="86.39" x2="129.21" y2="98.39" stroke-width="8" opacity="0" />
  <line id="mol17:Bond:4" class="event" x1="129.21" y1="98.39" x2="141.21" y2="119.18" stroke-width="8" opacity="0" />
  <line id="mol17:Bond:5" class="event" x1="129.21" y1="98.39" x2="108.43" y2="110.39" stroke-width="8" opacity="0" />
  <line id="mol17:Bond:6" class="event" x1="129.21" y1="98.39" x2="117.21" y2="77.61" stroke-width="8" opacity="0" />
  <circle id="mol17:Atom:0" class="event" cx="191.57" cy="86.39" r="8" opacity="0" />
  <circle id="mol17:Atom:1" class="event" cx="170.79" cy="98.39" r="8" opacity="0" />
  <circle id="mol17:Atom:2" class="event" cx="170.79" cy="122.39" r="8" opacity="0" />
  <circle id="mol17:Atom:3" class="event" cx="150" cy="86.39" r="8" opacity="0" />
  <circle id="mol17:Atom:4" class="event" cx="129.21" cy="98.39" r="8" opacity="0" />
  <circle id="mol17:Atom:5" class="event" cx="141.21" cy="119.18" r="8" opacity="0" />
  <circle id="mol17:Atom:6" class="event" cx="108.43" cy="110.39" r="8" opacity="0" />
  <circle id="mol17:Atom:7" class="event" cx="117.21" cy="77.61" r="8" opacity="0" />
</svg>