<svg id="mol49" xmlns="http://www.w3.org/2000/svg" version="1.1" width="160px" height="65px" viewBox="70 68 160 65">
  <style> text {font-family: sans-serif;} #mol49 { pointer-events:none; } #mol49 .event  { pointer-events:all; } line { stroke-linecap:round; } polygon { stroke-linejoin:round; } </style>
  <text x="196.91" y="98.67" stroke="none" font-size="14" fill="rgb(48,80,248)">N</text>
  <text x="134.16" y="86.67" stroke="none" font-size="14" fill="rgb(255,13,13)">O</text>
  <text x="154.95" y="122.67" stroke="none" font-size="14" fill="rgb(255,13,13)">O</text>
  <line x1="158.59" y1="92.96" x2="158.59" y2="111" stroke="rgb(0,0,0)" stroke-width="1.44" />
  <line x1="162.19" y1="92.96" x2="162.19" y2="111" stroke="rgb(0,0,0)" stroke-width="1.44" />
  <line x1="222.75" y1="82" x2="208.02" y2="90.5" stroke="rgb(0,0,0)" stroke-width="1.44" />
  <line x1="201.96" y1="101" x2="201.96" y2="118" stroke="rgb(0,0,0)" stroke-width="1.44" />
  <line x1="195.91" y1="90.51" x2="181.18" y2="82" stroke="rgb(0,0,0)" stroke-width="1.44" />
  <line x1="181.18" y1="82" x2="160.39" y2="94" stroke="rgb(0,0,0)" stroke-width="1.44" />
  <line x1="160.39" y1="94" x2="146.05" y2="85.72" stroke="rgb(0,0,0)" stroke-width="1.44" />
  <line x1="133.16" y1="85.72" x2="118.82" y2="94" stroke="rgb(0,0,0)" stroke-width="1.44" />
  <line x1="118.82" y1="94" x2="98.04" y2="82" stroke="rgb(0,0,0)" stroke-width="1.44" />
  <line x1="98.04" y1="82" x2="77.25" y2="94" stroke="rgb(0,0,0)" stroke-width="1.44" />
  <line id="mol49:Bond:8" class="event" x1="160.39" y1="94" x2="160.39" y2="118" stroke-width="8" opacity="0" />
  <line id="mol49:Bond:0" class="event" x1="222.75" y1="82" x2="201.96" y2="94" stroke-width="8" opacity="0" />
  <line id="mol49:Bond:1" class="event" x1="201.96" y1="94" x2="201.96" y2="118" stroke-width="8" opacity="0" />
  <line id="mol49:Bond:2" class="event" x1="201.96" y1="94" x2="181.18" y2="82" stroke-width="8" opacity="0" />
  <line id="mol49:Bond:3" class="event" x1="181.18" y1="82" x2="160.39" y2="94" stroke-width="8" opacity="0" />
  <line id="mol49:Bond:4" class="event" x1="160.39" y1="94" x2="139.61" y2="82" stroke-width="8" opacity="0" />
  <line id="mol49:Bond:5" class="event" x1="139.61" y1="82" x2="118.82" y2="94" stroke-width="8" opacity="0" />
  <line id="mol49:Bond:6" class="event" x1="118.82" y1="94" x2="98.04" y2="82" stroke-width="8" opacity="0" />
  <line id="mol49:Bond:7" class="event" x1="98.04" y1="82" x2="77.25" y2="94" stroke-width="8" opacity="0" />
  <circle id="mol49:Atom:0" class="event" cx="222.75" cy="82" r="8" opacity="0" />
  <circle id="mol49:Atom:1" class="event" cx="201.96" cy="94" r="8" opacity="0" />
  <circle id="mol49:Atom:2" class="event" cx="201.96" cy="118" r="8" opacity="0" />
  <circle id="mol49:Atom:3" class="event" cx="181.18" cy="82" r="8" opacity="0" />
  <circle id="mol49:Atom:4" class="event" cx="160.39" cy="94" r="8" opacity="0" />
  <circle id="mol49:Atom:5" class="event" cx="139.61" cy="82" r="8" opacity="0" />
  <circle id="mol49:Atom:6" class="event" cx="118.82" cy="94" r="8" opacity="0" />
  <circle id="mol49:Atom:7" class="event" cx="98.04" cy="82" r="8" opacity="0" />
  <circle id="mol49:Atom:8" class="event" cx="77.25" cy="94" r="8" opacity="0" />
  <circle id="mol49:Atom:9" class="event" cx="160.39" cy="118" r="8" opacity="0" />
</svg>