<svg id="mol33" xmlns="http://www.w3.org/2000/svg" version="1.1" width="119px" height="34px" viewBox="91 87 119 34">
  <style> text {font-family: sans-serif;} #mol33 { pointer-events:none; } #mol33 .event  { pointer-events:all; } line { stroke-linecap:round; } polygon { stroke-linejoin:round; } </style>
  <text x="175.73" y="110.67" stroke="none" font-size="14" fill="rgb(255,13,13)">O</text>
  <line x1="160.39" y1="94" x2="139.61" y2="106" stroke="rgb(0,0,0)" stroke-width="1.44" />
  <line x1="158.18" y1="91.12" x2="140.03" y2="101.6" stroke="rgb(0,0,0)" stroke-width="1.44" />
  <line x1="118.82" y1="94" x2="98.04" y2="106" stroke="rgb(0,0,0)" stroke-width="1.44" />
  <line x1="118.41" y1="98.4" x2="99.84" y2="109.12" stroke="rgb(0,0,0)" stroke-width="1.44" />
  <line x1="201.96" y1="94" x2="187.62" y2="102.28" stroke="rgb(0,0,0)" stroke-width="1.44" />
  <line x1="174.73" y1="102.28" x2="160.39" y2="94" stroke="rgb(0,0,0)" stroke-width="1.44" />
  <line x1="139.61" y1="106" x2="118.82" y2="94" stroke="rgb(0,0,0)" stroke-width="1.44" />
  <text x="143" y="96.07" stroke="none" font-size="9" fill="rgb(160,0,0)">E</text>
  <line id="mol33:Bond:2" class="event" x1="160.39" y1="94" x2="139.61" y2="106" stroke-width="8" opacity="0" />
  <line id="mol33:Bond:4" class="event" x1="118.82" y1="94" x2="98.04" y2="106" stroke-width="8" opacity="0" />
  <line id="mol33:Bond:0" class="event" x1="201.96" y1="94" x2="181.18" y2="106" stroke-width="8" opacity="0" />
  <line id="mol33:Bond:1" class="event" x1="181.18" y1="106" x2="160.39" y2="94" stroke-width="8" opacity="0" />
  <line id="mol33:Bond:3" class="event" x1="139.61" y1="106" x2="118.82" y2="94" stroke-width="8" opacity="0" />
  <circle id="mol33:Atom:0" class="event" cx="201.96" cy="94" r="8" opacity="0" />
  <circle id="mol33:Atom:1" class="event" cx="181.18" cy="106" r="8" opacity="0" />
  <circle id="mol33:Atom:2" class="event" cx="160.39" cy="94" r="8" opacity="0" />
  <circle id="mol33:Atom:3" class="event" cx="139.61" cy="106" r="8" opacity="0" />
  <circle id="mol33:Atom:4" class="event" cx="118.82" cy="94" r="8" opacity="0" />
  <circle id="mol33:Atom:5" class="event" cx="98.04" cy="106" r="8" opacity="0" />
</svg>