<svg id="mol52" xmlns="http://www.w3.org/2000/svg" version="1.1" width="119px" height="87px" viewBox="91 57 119 87">
  <style> text {font-family: sans-serif;} #mol52 { pointer-events:none; } #mol52 .event  { pointer-events:all; } line { stroke-linecap:round; } polygon { stroke-linejoin:round; } </style>
  <text x="103.99" y="158.15" stroke="none" font-size="12" fill="rgb(160,0,0)">unknown chirality</text>
  <text x="175.73" y="104.67" stroke="none" font-size="14" fill="rgb(255,13,13)">O</text>
  <line x1="139.61" y1="100" x2="118.82" y2="88" stroke="rgb(0,0,0)" stroke-width="1.44" />
  <line x1="135.59" y1="101.84" x2="119.24" y2="92.4" stroke="rgb(0,0,0)" stroke-width="1.44" />
  <line x1="98.04" y1="100" x2="98.04" y2="124" stroke="rgb(0,0,0)" stroke-width="1.44" />
  <line x1="101.64" y1="102.56" x2="101.64" y2="121.44" stroke="rgb(0,0,0)" stroke-width="1.44" />
  <line x1="118.82" y1="136" x2="139.61" y2="124" stroke="rgb(0,0,0)" stroke-width="1.44" />
  <line x1="119.24" y1="131.6" x2="135.59" y2="122.16" stroke="rgb(0,0,0)" stroke-width="1.44" />
  <line x1="201.96" y1="88" x2="187.62" y2="96.28" stroke="rgb(0,0,0)" stroke-width="1.44" />
  <line x1="174.73" y1="96.28" x2="167.56" y2="92.14" stroke="rgb(0,0,0)" stroke-width="1.44" />
  <line x1="167.56" y1="92.14" x2="160.39" y2="88" stroke="rgb(192,0,255)" stroke-width="1.44" />
  <line x1="160.39" y1="88" x2="160.39" y2="76" stroke="rgb(192,0,255)" stroke-width="1.44" />
  <line x1="160.39" y1="76" x2="160.39" y2="64" stroke="rgb(0,0,0)" stroke-width="1.44" />
  <line x1="160.39" y1="88" x2="150" y2="94" stroke="rgb(192,0,255)" stroke-width="1.44" />
  <line x1="150" y1="94" x2="139.61" y2="100" stroke="rgb(0,0,0)" stroke-width="1.44" />
  <line x1="118.82" y1="88" x2="98.04" y2="100" stroke="rgb(0,0,0)" stroke-width="1.44" />
  <line x1="98.04" y1="124" x2="118.82" y2="136" stroke="rgb(0,0,0)" stroke-width="1.44" />
  <line x1="139.61" y1="100" x2="139.61" y2="124" stroke="rgb(0,0,0)" stroke-width="1.44" />
  <line id="mol52:Bond:4" class="event" x1="139.61" y1="100" x2="118.82" y2="88" stroke-width="8" opacity="0" />
  <line id="mol52:Bond:6" class="event" x1="98.04" y1="100" x2="98.04" y2="124" stroke-width="8" opacity="0" />
  <line id="mol52:Bond:8" class="event" x1="118.82" y1="136" x2="139.61" y2="124" stroke-width="8" opacity="0" />
  <line id="mol52:Bond:0" class="event" x1="201.96" y1="88" x2="181.18" y2="100" stroke-width="8" opacity="0" />
  <line id="mol52:Bond:1" class="event" x1="181.18" y1="100" x2="160.39" y2="88" stroke-width="8" opacity="0" />
  <line id="mol52:Bond:2" class="event" x1="160.39" y1="88" x2="160.39" y2="64" stroke-width="8" opacity="0" />
  <line id="mol52:Bond:3" class="event" x1="160.39" y1="88" x2="139.61" y2="100" stroke-width="8" opacity="0" />
  <line id="mol52:Bond:5" class="event" x1="118.82" y1="88" x2="98.04" y2="100" stroke-width="8" opacity="0" />
  <line id="mol52:Bond:7" class="event" x1="98.04" y1="124" x2="118.82" y2="136" stroke-width="8" opacity="0" />
  <line id="mol52:Bond:9" class="event" x1="139.61" y1="100" x2="139.61" y2="124" stroke-width="8" opacity="0" />
  <circle id="mol52:Atom:0" class="event" cx="201.96" cy="88" r="8" opacity="0" />
  <circle id="mol52:Atom:1" class="event" cx="181.18" cy="100" r="8" opacity="0" />
  <circle id="mol52:Atom:2" class="event" cx="160.39" cy="88" r="8" opacity="0" />
  <circle id="mol52:Atom:3" class="event" cx="160.39" cy="64" r="8" opacity="0" />
  <circle id="mol52:Atom:4" class="event" cx="139.61" cy="100" r="8" opacity="0" />
  <circle id="mol52:Atom:5" class="event" cx="118.82" cy="88" r="8" opacity="0" />
  <circle id="mol52:Atom:6" class="event" cx="98.04" cy="100" r="8" opacity="0" />
  <circle id="mol52:Atom:7" class="event" cx="98.04" cy="124" r="8" opacity="0" />
  <circle id="mol52:Atom:8" class="event" cx="118.82" cy="136" r="8" opacity="0" />
  <circle id="mol52:Atom:9" class="event" cx="139.61" cy="124" r="8" opacity="0" />
</svg>