<svg id="mol60" xmlns="http://www.w3.org/2000/svg" version="1.1" width="119px" height="94px" viewBox="91 50 119 94">
  <style> text {font-family: sans-serif;} #mol60 { pointer-events:none; } #mol60 .event  { pointer-events:all; } line { stroke-linecap:round; } polygon { stroke-linejoin:round; } </style>
  <text x="113.38" y="68.67" stroke="none" font-size="14" fill="rgb(255,13,13)">O</text>
  <line x1="181.18" y1="76" x2="160.39" y2="64" stroke="rgb(0,0,0)" stroke-width="1.44" />
  <line x1="177.16" y1="77.84" x2="160.81" y2="68.4" stroke="rgb(0,0,0)" stroke-width="1.44" />
  <line x1="139.61" y1="76" x2="139.61" y2="100" stroke="rgb(0,0,0)" stroke-width="1.44" />
  <line x1="143.21" y1="78.56" x2="143.21" y2="97.44" stroke="rgb(0,0,0)" stroke-width="1.44" />
  <line x1="160.39" y1="112" x2="181.18" y2="100" stroke="rgb(0,0,0)" stroke-width="1.44" />
  <line x1="160.81" y1="107.6" x2="177.16" y2="98.16" stroke="rgb(0,0,0)" stroke-width="1.44" />
  <line x1="201.96" y1="64" x2="181.18" y2="76" stroke="rgb(0,0,0)" stroke-width="1.44" />
  <line x1="160.39" y1="64" x2="139.61" y2="76" stroke="rgb(0,0,0)" stroke-width="1.44" />
  <line x1="139.61" y1="76" x2="125.27" y2="67.72" stroke="rgb(0,0,0)" stroke-width="1.44" />
  <line x1="112.38" y1="67.72" x2="98.04" y2="76" stroke="rgb(0,0,0)" stroke-width="1.44" />
  <line x1="139.61" y1="100" x2="160.39" y2="112" stroke="rgb(0,0,0)" stroke-width="1.44" />
  <line x1="160.39" y1="112" x2="160.39" y2="136" stroke="rgb(0,0,0)" stroke-width="1.44" />
  <line x1="181.18" y1="76" x2="181.18" y2="100" stroke="rgb(0,0,0)" stroke-width="1.44" />
  <line id="mol60:Bond:1" class="event" x1="181.18" y1="76" x2="160.39" y2="64" stroke-width="8" opacity="0" />
  <line id="mol60:Bond:5" class="event" x1="139.61" y1="76" x2="139.61" y2="100" stroke-width="8" opacity="0" />
  <line id="mol60:Bond:8" class="event" x1="160.39" y1="112" x2="181.18" y2="100" stroke-width="8" opacity="0" />
  <line id="mol60:Bond:0" class="event" x1="201.96" y1="64" x2="181.18" y2="76" stroke-width="8" opacity="0" />
  <line id="mol60:Bond:2" class="event" x1="160.39" y1="64" x2="139.61" y2="76" stroke-width="8" opacity="0" />
  <line id="mol60:Bond:3" class="event" x1="139.61" y1="76" x2="118.82" y2="64" stroke-width="8" opacity="0" />
  <line id="mol60:Bond:4" class="event" x1="118.82" y1="64" x2="98.04" y2="76" stroke-width="8" opacity="0" />
  <line id="mol60:Bond:6" class="event" x1="139.61" y1="100" x2="160.39" y2="112" stroke-width="8" opacity="0" />
  <line id="mol60:Bond:7" class="event" x1="160.39" y1="112" x2="160.39" y2="136" stroke-width="8" opacity="0" />
  <line id="mol60:Bond:9" class="event" x1="181.18" y1="76" x2="181.18" y2="100" stroke-width="8" opacity="0" />
  <circle id="mol60:Atom:0" class="event" cx="201.96" cy="64" r="8" opacity="0" />
  <circle id="mol60:Atom:1" class="event" cx="181.18" cy="76" r="8" opacity="0" />
  <circle id="mol60:Atom:2" class="event" cx="160.39" cy="64" r="8" opacity="0" />
  <circle id="mol60:Atom:3" class="event" cx="139.61" cy="76" r="8" opacity="0" />
  <circle id="mol60:Atom:4" class="event" cx="118.82" cy="64" r="8" opacity="0" />
  <circle id="mol60:Atom:5" class="event" cx="98.04" cy="76" r="8" opacity="0" />
  <circle id="mol60:Atom:6" class="event" cx="139.61" cy="100" r="8" opacity="0" />
  <circle id="mol60:Atom:7" class="event" cx="160.39" cy="112" r="8" opacity="0" />
  <circle id="mol60:Atom:8" class="event" cx="160.39" cy="136" r="8" opacity="0" />
  <circle id="mol60:Atom:9" class="event" cx="181.18" cy="100" r="8" opacity="0" />
</svg>