<svg id="mol55" xmlns="http://www.w3.org/2000/svg" version="1.1" width="98px" height="87px" viewBox="101 57 98 87">
  <style> text {font-family: sans-serif;} #mol55 { pointer-events:none; } #mol55 .event  { pointer-events:all; } line { stroke-linecap:round; } polygon { stroke-linejoin:round; } </style>
  <text x="123.77" y="92.67" stroke="none" font-size="14" fill="rgb(255,13,13)">O</text>
  <line x1="150" y1="100" x2="150" y2="124" stroke="rgb(0,0,0)" stroke-width="1.44" />
  <line x1="153.6" y1="102.56" x2="153.6" y2="121.44" stroke="rgb(0,0,0)" stroke-width="1.44" />
  <line x1="170.79" y1="136" x2="191.57" y2="124" stroke="rgb(0,0,0)" stroke-width="1.44" />
  <line x1="171.2" y1="131.6" x2="187.55" y2="122.16" stroke="rgb(0,0,0)" stroke-width="1.44" />
  <line x1="170.79" y1="88" x2="191.57" y2="100" stroke="rgb(0,0,0)" stroke-width="1.44" />
  <line x1="171.2" y1="92.4" x2="187.55" y2="101.84" stroke="rgb(0,0,0)" stroke-width="1.44" />
  <line x1="170.79" y1="64" x2="170.79" y2="88" stroke="rgb(0,0,0)" stroke-width="1.44" />
  <line x1="170.79" y1="88" x2="150" y2="100" stroke="rgb(0,0,0)" stroke-width="1.44" />
  <line x1="150" y1="100" x2="135.66" y2="91.72" stroke="rgb(0,0,0)" stroke-width="1.44" />
  <line x1="122.77" y1="91.72" x2="108.43" y2="100" stroke="rgb(0,0,0)" stroke-width="1.44" />
  <line x1="150" y1="124" x2="129.21" y2="136" stroke="rgb(0,0,0)" stroke-width="1.44" />
  <line x1="150" y1="124" x2="170.79" y2="136" stroke="rgb(0,0,0)" stroke-width="1.44" />
  <line x1="191.57" y1="124" x2="191.57" y2="100" stroke="rgb(0,0,0)" stroke-width="1.44" />
  <line id="mol55:Bond:4" class="event" x1="150" y1="100" x2="150" y2="124" stroke-width="8" opacity="0" />
  <line id="mol55:Bond:7" class="event" x1="170.79" y1="136" x2="191.57" y2="124" stroke-width="8" opacity="0" />
  <line id="mol55:Bond:9" class="event" x1="170.79" y1="88" x2="191.57" y2="100" stroke-width="8" opacity="0" />
  <line id="mol55:Bond:0" class="event" x1="170.79" y1="64" x2="170.79" y2="88" stroke-width="8" opacity="0" />
  <line id="mol55:Bond:1" class="event" x1="170.79" y1="88" x2="150" y2="100" stroke-width="8" opacity="0" />
  <line id="mol55:Bond:2" class="event" x1="150" y1="100" x2="129.21" y2="88" stroke-width="8" opacity="0" />
  <line id="mol55:Bond:3" class="event" x1="129.21" y1="88" x2="108.43" y2="100" stroke-width="8" opacity="0" />
  <line id="mol55:Bond:5" class="event" x1="150" y1="124" x2="129.21" y2="136" stroke-width="8" opacity="0" />
  <line id="mol55:Bond:6" class="event" x1="150" y1="124" x2="170.79" y2="136" stroke-width="8" opacity="0" />
  <line id="mol55:Bond:8" class="event" x1="191.57" y1="124" x2="191.57" y2="100" stroke-width="8" opacity="0" />
  <circle id="mol55:Atom:0" class="event" cx="170.79" cy="64" r="8" opacity="0" />
  <circle id="mol55:Atom:1" class="event" cx="170.79" cy="88" r="8" opacity="0" />
  <circle id="mol55:Atom:2" class="event" cx="150" cy="100" r="8" opacity="0" />
  <circle id="mol55:Atom:3" class="event" cx="129.21" cy="88" r="8" opacity="0" />
  <circle id="mol55:Atom:4" class="event" cx="108.43" cy="100" r="8" opacity="0" />
  <circle id="mol55:Atom:5" class="event" cx="150" cy="124" r="8" opacity="0" />
  <circle id="mol55:Atom:6" class="event" cx="129.21" cy="136" r="8" opacity="0" />
  <circle id="mol55:Atom:7" class="event" cx="170.79" cy="136" r="8" opacity="0" />
  <circle id="mol55:Atom:8" class="event" cx="191.57" cy="124" r="8" opacity="0" />
  <circle id="mol55:Atom:9" class="event" cx="191.57" cy="100" r="8" opacity="0" />
</svg>