<svg id="mol40" xmlns="http://www.w3.org/2000/svg" version="1.1" width="140px" height="58px" viewBox="80 75 140 58">
  <style> text {font-family: sans-serif;} #mol40 { pointer-events:none; } #mol40 .event  { pointer-events:all; } line { stroke-linecap:round; } polygon { stroke-linejoin:round; } </style>
  <text x="165.34" y="122.67" stroke="none" font-size="14" fill="rgb(255,13,13)">O</text>
  <text x="123.77" y="98.67" stroke="none" font-size="14" fill="rgb(255,13,13)">O</text>
  <line x1="168.98" y1="92.96" x2="168.98" y2="111" stroke="rgb(0,0,0)" stroke-width="1.44" />
  <line x1="172.58" y1="92.96" x2="172.58" y2="111" stroke="rgb(0,0,0)" stroke-width="1.44" />
  <line x1="170.78" y1="94" x2="191.57" y2="82" stroke="rgb(0,0,0)" stroke-width="1.44" />
  <line x1="191.57" y1="82" x2="212.35" y2="94" stroke="rgb(0,0,0)" stroke-width="1.44" />
  <line x1="170.78" y1="94" x2="150" y2="82" stroke="rgb(0,0,0)" stroke-width="1.44" />
  <line x1="150" y1="82" x2="135.66" y2="90.28" stroke="rgb(0,0,0)" stroke-width="1.44" />
  <line x1="122.77" y1="90.28" x2="108.43" y2="82" stroke="rgb(0,0,0)" stroke-width="1.44" />
  <line x1="108.43" y1="82" x2="87.65" y2="94" stroke="rgb(0,0,0)" stroke-width="1.44" />
  <line id="mol40:Bond:0" class="event" x1="170.78" y1="118" x2="170.78" y2="94" stroke-width="8" opacity="0" />
  <line id="mol40:Bond:1" class="event" x1="170.78" y1="94" x2="191.57" y2="82" stroke-width="8" opacity="0" />
  <line id="mol40:Bond:2" class="event" x1="191.57" y1="82" x2="212.35" y2="94" stroke-width="8" opacity="0" />
  <line id="mol40:Bond:3" class="event" x1="170.78" y1="94" x2="150" y2="82" stroke-width="8" opacity="0" />
  <line id="mol40:Bond:4" class="event" x1="150" y1="82" x2="129.22" y2="94" stroke-width="8" opacity="0" />
  <line id="mol40:Bond:5" class="event" x1="129.22" y1="94" x2="108.43" y2="82" stroke-width="8" opacity="0" />
  <line id="mol40:Bond:6" class="event" x1="108.43" y1="82" x2="87.65" y2="94" stroke-width="8" opacity="0" />
  <circle id="mol40:Atom:0" class="event" cx="170.78" cy="118" r="8" opacity="0" />
  <circle id="mol40:Atom:1" class="event" cx="170.78" cy="94" r="8" opacity="0" />
  <circle id="mol40:Atom:2" class="event" cx="191.57" cy="82" r="8" opacity="0" />
  <circle id="mol40:Atom:3" class="event" cx="212.35" cy="94" r="8" opacity="0" />
  <circle id="mol40:Atom:4" class="event" cx="150" cy="82" r="8" opacity="0" />
  <circle id="mol40:Atom:5" class="event" cx="129.22" cy="94" r="8" opacity="0" />
  <circle id="mol40:Atom:6" class="event" cx="108.43" cy="82" r="8" opacity="0" />
  <circle id="mol40:Atom:7" class="event" cx="87.65" cy="94" r="8" opacity="0" />
</svg>