<svg id="mol68" xmlns="http://www.w3.org/2000/svg" version="1.1" width="119px" height="65px" viewBox="91 68 119 65">
  <style> text {font-family: sans-serif;} #mol68 { pointer-events:none; } #mol68 .event  { pointer-events:all; } line { stroke-linecap:round; } polygon { stroke-linejoin:round; } </style>
  <text x="154.95" y="86.67" stroke="none" font-size="14" fill="rgb(255,13,13)">O</text>
  <text x="134.16" y="122.67" stroke="none" font-size="14" fill="rgb(255,13,13)">O</text>
  <line x1="137.81" y1="92.96" x2="137.81" y2="111" stroke="rgb(0,0,0)" stroke-width="1.44" />
  <line x1="141.41" y1="92.96" x2="141.41" y2="111" stroke="rgb(0,0,0)" stroke-width="1.44" />
  <line x1="201.96" y1="82" x2="181.18" y2="94" stroke="rgb(0,0,0)" stroke-width="1.44" />
  <line x1="181.18" y1="94" x2="166.84" y2="85.72" stroke="rgb(0,0,0)" stroke-width="1.44" />
  <line x1="153.95" y1="85.72" x2="139.61" y2="94" stroke="rgb(0,0,0)" stroke-width="1.44" />
  <line x1="139.61" y1="94" x2="118.82" y2="82" stroke="rgb(0,0,0)" stroke-width="1.44" />
  <line x1="118.82" y1="82" x2="98.04" y2="94" stroke="rgb(0,0,0)" stroke-width="1.44" />
  <line id="mol68:Bond:3" class="event" x1="139.61" y1="94" x2="139.61" y2="118" stroke-width="8" opacity="0" />
  <line id="mol68:Bond:0" class="event" x1="201.96" y1="82" x2="181.18" y2="94" stroke-width="8" opacity="0" />
  <line id="mol68:Bond:1" class="event" x1="181.18" y1="94" x2="160.39" y2="82" stroke-width="8" opacity="0" />
  <line id="mol68:Bond:2" class="event" x1="160.39" y1="82" x2="139.61" y2="94" stroke-width="8" opacity="0" />
  <line id="mol68:Bond:4" class="event" x1="139.61" y1="94" x2="118.82" y2="82" stroke-width="8" opacity="0" />
  <line id="mol68:Bond:5" class="event" x1="118.82" y1="82" x2="98.04" y2="94" stroke-width="8" opacity="0" />
  <circle id="mol68:Atom:0" class="event" cx="201.96" cy="82" r="8" opacity="0" />
  <circle id="mol68:Atom:1" class="event" cx="181.18" cy="94" r="8" opacity="0" />
  <circle id="mol68:Atom:2" class="event" cx="160.39" cy="82" r="8" opacity="0" />
  <circle id="mol68:Atom:3" class="event" cx="139.61" cy="94" r="8" opacity="0" />
  <circle id="mol68:Atom:4" class="event" cx="139.61" cy="118" r="8" opacity="0" />
  <circle id="mol68:Atom:5" class="event" cx="118.82" cy="82" r="8" opacity="0" />
  <circle id="mol68:Atom:6" class="event" cx="98.04" cy="94" r="8" opacity="0" />
</svg>