<svg id="mol69" xmlns="http://www.w3.org/2000/svg" version="1.1" width="98px" height="63px" viewBox="101 69 98 63">
  <style> text {font-family: sans-serif;} #mol69 { pointer-events:none; } #mol69 .event  { pointer-events:all; } line { stroke-linecap:round; } polygon { stroke-linejoin:round; } </style>
  <text x="144.95" y="92.67" stroke="none" font-size="14" fill="rgb(48,80,248)">N</text>
  <line x1="191.57" y1="88" x2="170.79" y2="76" stroke="rgb(0,0,0)" stroke-width="1.44" />
  <line x1="170.79" y1="76" x2="156.06" y2="84.5" stroke="rgb(0,0,0)" stroke-width="1.44" />
  <line x1="150" y1="95" x2="150" y2="112" stroke="rgb(0,0,0)" stroke-width="1.44" />
  <line x1="150" y1="112" x2="170.79" y2="124" stroke="rgb(0,0,0)" stroke-width="1.44" />
  <line x1="143.95" y1="84.5" x2="129.21" y2="76" stroke="rgb(0,0,0)" stroke-width="1.44" />
  <line x1="129.21" y1="76" x2="108.43" y2="88" stroke="rgb(0,0,0)" stroke-width="1.44" />
  <line id="mol69:Bond:0" class="event" x1="191.57" y1="88" x2="170.79" y2="76" stroke-width="8" opacity="0" />
  <line id="mol69:Bond:1" class="event" x1="170.79" y1="76" x2="150" y2="88" stroke-width="8" opacity="0" />
  <line id="mol69:Bond:2" class="event" x1="150" y1="88" x2="150" y2="112" stroke-width="8" opacity="0" />
  <line id="mol69:Bond:3" class="event" x1="150" y1="112" x2="170.79" y2="124" stroke-width="8" opacity="0" />
  <line id="mol69:Bond:4" class="event" x1="150" y1="88" x2="129.21" y2="76" stroke-width="8" opacity="0" />
  <line id="mol69:Bond:5" class="event" x1="129.21" y1="76" x2="108.43" y2="88" stroke-width="8" opacity="0" />
  <circle id="mol69:Atom:0" class="event" cx="191.57" cy="88" r="8" opacity="0" />
  <circle id="mol69:Atom:1" class="event" cx="170.79" cy="76" r="8" opacity="0" />
  <circle id="mol69:Atom:2" class="event" cx="150" cy="88" r="8" opacity="0" />
  <circle id="mol69:Atom:3" class="event" cx="150" cy="112" r="8" opacity="0" />
  <circle id="mol69:Atom:4" class="event" cx="170.79" cy="124" r="8" opacity="0" />
  <circle id="mol69:Atom:5" class="event" cx="129.21" cy="76" r="8" opacity="0" />
  <circle id="mol69:Atom:6" class="event" cx="108.43" cy="88" r="8" opacity="0" />
</svg>