<svg id="mol62" xmlns="http://www.w3.org/2000/svg" version="1.1" width="98px" height="63px" viewBox="101 69 98 63">
  <style> text {font-family: sans-serif;} #mol62 { pointer-events:none; } #mol62 .event  { pointer-events:all; } line { stroke-linecap:round; } polygon { stroke-linejoin:round; } </style>
  <line x1="150" y1="88" x2="129.22" y2="76" stroke="rgb(0,0,0)" stroke-width="1.44" />
  <line x1="145.98" y1="89.84" x2="129.63" y2="80.4" stroke="rgb(0,0,0)" stroke-width="1.44" />
  <line x1="108.43" y1="88" x2="108.43" y2="112" stroke="rgb(0,0,0)" stroke-width="1.44" />
  <line x1="112.03" y1="90.56" x2="112.03" y2="109.44" stroke="rgb(0,0,0)" stroke-width="1.44" />
  <line x1="129.22" y1="124" x2="150" y2="112" stroke="rgb(0,0,0)" stroke-width="1.44" />
  <line x1="129.63" y1="119.6" x2="145.98" y2="110.16" stroke="rgb(0,0,0)" stroke-width="1.44" />
  <line x1="191.57" y1="88" x2="170.78" y2="76" stroke="rgb(0,0,0)" stroke-width="1.44" />
  <line x1="170.78" y1="76" x2="150" y2="88" stroke="rgb(0,0,0)" stroke-width="1.44" />
  <line x1="129.22" y1="76" x2="108.43" y2="88" stroke="rgb(0,0,0)" stroke-width="1.44" />
  <line x1="108.43" y1="112" x2="129.22" y2="124" stroke="rgb(0,0,0)" stroke-width="1.44" />
  <line x1="150" y1="88" x2="150" y2="112" stroke="rgb(0,0,0)" stroke-width="1.44" />
  <line id="mol62:Bond:2" class="event" x1="150" y1="88" x2="129.22" y2="76" stroke-width="8" opacity="0" />
  <line id="mol62:Bond:4" class="event" x1="108.43" y1="88" x2="108.43" y2="112" stroke-width="8" opacity="0" />
  <line id="mol62:Bond:6" class="event" x1="129.22" y1="124" x2="150" y2="112" stroke-width="8" opacity="0" />
  <line id="mol62:Bond:0" class="event" x1="191.57" y1="88" x2="170.78" y2="76" stroke-width="8" opacity="0" />
  <line id="mol62:Bond:1" class="event" x1="170.78" y1="76" x2="150" y2="88" stroke-width="8" opacity="0" />
  <line id="mol62:Bond:3" class="event" x1="129.22" y1="76" x2="108.43" y2="88" stroke-width="8" opacity="0" />
  <line id="mol62:Bond:5" class="event" x1="108.43" y1="112" x2="129.22" y2="124" stroke-width="8" opacity="0" />
  <line id="mol62:Bond:7" class="event" x1="150" y1="88" x2="150" y2="112" stroke-width="8" opacity="0" />
  <circle id="mol62:Atom:0" class="event" cx="191.57" cy="88" r="8" opacity="0" />
  <circle id="mol62:Atom:1" class="event" cx="170.78" cy="76" r="8" opacity="0" />
  <circle id="mol62:Atom:2" class="event" cx="150" cy="88" r="8" opacity="0" />
  <circle id="mol62:Atom:3" class="event" cx="129.22" cy="76" r="8" opacity="0" />
  <circle id="mol62:Atom:4" class="event" cx="108.43" cy="88" r="8" opacity="0" />
  <circle id="mol62:Atom:5" class="event" cx="108.43" cy="112" r="8" opacity="0" />
  <circle id="mol62:Atom:6" class="event" cx="129.22" cy="124" r="8" opacity="0" />
  <circle id="mol62:Atom:7" class="event" cx="150" cy="112" r="8" opacity="0" />
</svg>