<svg id="mol74" xmlns="http://www.w3.org/2000/svg" version="1.1" width="106px" height="58px" viewBox="93 75 106 58">
  <style> text {font-family: sans-serif;} #mol74 { pointer-events:none; } #mol74 .event  { pointer-events:all; } line { stroke-linecap:round; } polygon { stroke-linejoin:round; } </style>
  <text x="101.82" y="122.67" stroke="none" font-size="14" fill="rgb(31,240,31)">Cl</text>
  <line x1="191.57" y1="118" x2="170.79" y2="106" stroke="rgb(0,0,0)" stroke-width="1.44" />
  <line x1="170.79" y1="106" x2="170.79" y2="82" stroke="rgb(0,0,0)" stroke-width="1.44" />
  <line x1="170.79" y1="106" x2="150" y2="118" stroke="rgb(0,0,0)" stroke-width="1.44" />
  <line x1="150" y1="118" x2="129.21" y2="106" stroke="rgb(0,0,0)" stroke-width="1.44" />
  <line x1="129.21" y1="106" x2="116.04" y2="113.61" stroke="rgb(0,0,0)" stroke-width="1.44" />
  <line id="mol74:Bond:0" class="event" x1="191.57" y1="118" x2="170.79" y2="106" stroke-width="8" opacity="0" />
  <line id="mol74:Bond:1" class="event" x1="170.79" y1="106" x2="170.79" y2="82" stroke-width="8" opacity="0" />
  <line id="mol74:Bond:2" class="event" x1="170.79" y1="106" x2="150" y2="118" stroke-width="8" opacity="0" />
  <line id="mol74:Bond:3" class="event" x1="150" y1="118" x2="129.21" y2="106" stroke-width="8" opacity="0" />
  <line id="mol74:Bond:4" class="event" x1="129.21" y1="106" x2="108.43" y2="118" stroke-width="8" opacity="0" />
  <circle id="mol74:Atom:0" class="event" cx="191.57" cy="118" r="8" opacity="0" />
  <circle id="mol74:Atom:1" class="event" cx="170.79" cy="106" r="8" opacity="0" />
  <circle id="mol74:Atom:2" class="event" cx="170.79" cy="82" r="8" opacity="0" />
  <circle id="mol74:Atom:3" class="event" cx="150" cy="118" r="8" opacity="0" />
  <circle id="mol74:Atom:4" class="event" cx="129.21" cy="106" r="8" opacity="0" />
  <circle id="mol74:Atom:5" class="event" cx="108.43" cy="118" r="8" opacity="0" />
</svg>