<svg id="mol65" xmlns="http://www.w3.org/2000/svg" version="1.1" width="127px" height="70px" viewBox="83 62 127 70">
  <style> text {font-family: sans-serif;} #mol65 { pointer-events:none; } #mol65 .event  { pointer-events:all; } line { stroke-linecap:round; } polygon { stroke-linejoin:round; } </style>
  <text x="175.73" y="80.67" stroke="none" font-size="14" fill="rgb(255,13,13)">O</text>
  <text x="91.04" y="80.67" stroke="none" font-size="14" fill="rgb(166,41,41)">Br</text>
  <line x1="160.39" y1="88" x2="139.61" y2="76" stroke="rgb(0,0,0)" stroke-width="1.44" />
  <line x1="156.37" y1="89.84" x2="140.03" y2="80.4" stroke="rgb(0,0,0)" stroke-width="1.44" />
  <line x1="118.82" y1="88" x2="118.82" y2="112" stroke="rgb(0,0,0)" stroke-width="1.44" />
  <line x1="122.42" y1="90.56" x2="122.42" y2="109.44" stroke="rgb(0,0,0)" stroke-width="1.44" />
  <line x1="139.61" y1="124" x2="160.39" y2="112" stroke="rgb(0,0,0)" stroke-width="1.44" />
  <line x1="140.03" y1="119.6" x2="156.37" y2="110.16" stroke="rgb(0,0,0)" stroke-width="1.44" />
  <line x1="201.96" y1="88" x2="187.62" y2="79.72" stroke="rgb(0,0,0)" stroke-width="1.44" />
  <line x1="174.73" y1="79.72" x2="160.39" y2="88" stroke="rgb(0,0,0)" stroke-width="1.44" />
  <line x1="139.61" y1="76" x2="118.82" y2="88" stroke="rgb(0,0,0)" stroke-width="1.44" />
  <line x1="118.82" y1="88" x2="106.04" y2="80.62" stroke="rgb(0,0,0)" stroke-width="1.44" />
  <line x1="118.82" y1="112" x2="139.61" y2="124" stroke="rgb(0,0,0)" stroke-width="1.44" />
  <line x1="160.39" y1="88" x2="160.39" y2="112" stroke="rgb(0,0,0)" stroke-width="1.44" />
  <line id="mol65:Bond:2" class="event" x1="160.39" y1="88" x2="139.61" y2="76" stroke-width="8" opacity="0" />
  <line id="mol65:Bond:5" class="event" x1="118.82" y1="88" x2="118.82" y2="112" stroke-width="8" opacity="0" />
  <line id="mol65:Bond:7" class="event" x1="139.61" y1="124" x2="160.39" y2="112" stroke-width="8" opacity="0" />
  <line id="mol65:Bond:0" class="event" x1="201.96" y1="88" x2="181.18" y2="76" stroke-width="8" opacity="0" />
  <line id="mol65:Bond:1" class="event" x1="181.18" y1="76" x2="160.39" y2="88" stroke-width="8" opacity="0" />
  <line id="mol65:Bond:3" class="event" x1="139.61" y1="76" x2="118.82" y2="88" stroke-width="8" opacity="0" />
  <line id="mol65:Bond:4" class="event" x1="118.82" y1="88" x2="98.04" y2="76" stroke-width="8" opacity="0" />
  <line id="mol65:Bond:6" class="event" x1="118.82" y1="112" x2="139.61" y2="124" stroke-width="8" opacity="0" />
  <line id="mol65:Bond:8" class="event" x1="160.39" y1="88" x2="160.39" y2="112" stroke-width="8" opacity="0" />
  <circle id="mol65:Atom:0" class="event" cx="201.96" cy="88" r="8" opacity="0" />
  <circle id="mol65:Atom:1" class="event" cx="181.18" cy="76" r="8" opacity="0" />
  <circle id="mol65:Atom:2" class="event" cx="160.39" cy="88" r="8" opacity="0" />
  <circle id="mol65:Atom:3" class="event" cx="139.61" cy="76" r="8" opacity="0" />
  <circle id="mol65:Atom:4" class="event" cx="118.82" cy="88" r="8" opacity="0" />
  <circle id="mol65:Atom:5" class="event" cx="98.04" cy="76" r="8" opacity="0" />
  <circle id="mol65:Atom:6" class="event" cx="118.82" cy="112" r="8" opacity="0" />
  <circle id="mol65:Atom:7" class="event" cx="139.61" cy="124" r="8" opacity="0" />
  <circle id="mol65:Atom:8" class="event" cx="160.39" cy="112" r="8" opacity="0" />
</svg>