<svg id="mol71" xmlns="http://www.w3.org/2000/svg" version="1.1" width="146px" height="87px" viewBox="80 57 146 87">
  <style> text {font-family: sans-serif;} #mol71 { pointer-events:none; } #mol71 .event  { pointer-events:all; } line { stroke-linecap:round; } polygon { stroke-linejoin:round; } </style>
  <text x="206.91" y="104.67" stroke="none" font-size="14" fill="rgb(255,13,13)">O</text>
  <line x1="170.78" y1="100" x2="150" y2="88" stroke="rgb(0,0,0)" stroke-width="1.44" />
  <line x1="166.77" y1="101.84" x2="150.42" y2="92.4" stroke="rgb(0,0,0)" stroke-width="1.44" />
  <line x1="129.22" y1="100" x2="129.22" y2="124" stroke="rgb(0,0,0)" stroke-width="1.44" />
  <line x1="132.82" y1="102.56" x2="132.82" y2="121.44" stroke="rgb(0,0,0)" stroke-width="1.44" />
  <line x1="150" y1="136" x2="170.78" y2="124" stroke="rgb(0,0,0)" stroke-width="1.44" />
  <line x1="150.42" y1="131.6" x2="166.77" y2="122.16" stroke="rgb(0,0,0)" stroke-width="1.44" />
  <line x1="189.77" y1="89.04" x2="205.01" y2="97.84" stroke="rgb(0,0,0)" stroke-width="1.44" />
  <line x1="191.57" y1="85.92" x2="206.81" y2="94.72" stroke="rgb(0,0,0)" stroke-width="1.44" />
  <line x1="191.57" y1="64" x2="191.57" y2="88" stroke="rgb(0,0,0)" stroke-width="1.44" />
  <line x1="191.57" y1="88" x2="170.78" y2="100" stroke="rgb(0,0,0)" stroke-width="1.44" />
  <line x1="150" y1="88" x2="129.22" y2="100" stroke="rgb(0,0,0)" stroke-width="1.44" />
  <line x1="129.22" y1="100" x2="108.43" y2="88" stroke="rgb(0,0,0)" stroke-width="1.44" />
  <line x1="108.43" y1="88" x2="87.65" y2="100" stroke="rgb(0,0,0)" stroke-width="1.44" />
  <line x1="129.22" y1="124" x2="150" y2="136" stroke="rgb(0,0,0)" stroke-width="1.44" />
  <line x1="170.78" y1="100" x2="170.78" y2="124" stroke="rgb(0,0,0)" stroke-width="1.44" />
  <line id="mol71:Bond:2" class="event" x1="170.78" y1="100" x2="150" y2="88" stroke-width="8" opacity="0" />
  <line id="mol71:Bond:6" class="event" x1="129.22" y1="100" x2="129.22" y2="124" stroke-width="8" opacity="0" />
  <line id="mol71:Bond:8" class="event" x1="150" y1="136" x2="170.78" y2="124" stroke-width="8" opacity="0" />
  <line id="mol71:Bond:10" class="event" x1="191.57" y1="88" x2="212.35" y2="100" stroke-width="8" opacity="0" />
  <line id="mol71:Bond:0" class="event" x1="191.57" y1="64" x2="191.57" y2="88" stroke-width="8" opacity="0" />
  <line id="mol71:Bond:1" class="event" x1="191.57" y1="88" x2="170.78" y2="100" stroke-width="8" opacity="0" />
  <line id="mol71:Bond:3" class="event" x1="150" y1="88" x2="129.22" y2="100" stroke-width="8" opacity="0" />
  <line id="mol71:Bond:4" class="event" x1="129.22" y1="100" x2="108.43" y2="88" stroke-width="8" opacity="0" />
  <line id="mol71:Bond:5" class="event" x1="108.43" y1="88" x2="87.65" y2="100" stroke-width="8" opacity="0" />
  <line id="mol71:Bond:7" class="event" x1="129.22" y1="124" x2="150" y2="136" stroke-width="8" opacity="0" />
  <line id="mol71:Bond:9" class="event" x1="170.78" y1="100" x2="170.78" y2="124" stroke-width="8" opacity="0" />
  <circle id="mol71:Atom:0" class="event" cx="191.57" cy="64" r="8" opacity="0" />
  <circle id="mol71:Atom:1" class="event" cx="191.57" cy="88" r="8" opacity="0" />
  <circle id="mol71:Atom:2" class="event" cx="170.78" cy="100" r="8" opacity="0" />
  <circle id="mol71:Atom:3" class="event" cx="150" cy="88" r="8" opacity="0" />
  <circle id="mol71:Atom:4" class="event" cx="129.22" cy="100" r="8" opacity="0" />
  <circle id="mol71:Atom:5" class="event" cx="108.43" cy="88" r="8" opacity="0" />
  <circle id="mol71:Atom:6" class="event" cx="87.65" cy="100" r="8" opacity="0" />
  <circle id="mol71:Atom:7" class="event" cx="129.22" cy="124" r="8" opacity="0" />
  <circle id="mol71:Atom:8" class="event" cx="150" cy="136" r="8" opacity="0" />
  <circle id="mol71:Atom:9" class="event" cx="170.78" cy="124" r="8" opacity="0" />
  <circle id="mol71:Atom:10" class="event" cx="212.35" cy="100" r="8" opacity="0" />
</svg>