<svg id="mol57" xmlns="http://www.w3.org/2000/svg" version="1.1" width="98px" height="82px" viewBox="101 56 98 82">
  <style> text {font-family: sans-serif;} #mol57 { pointer-events:none; } #mol57 .event  { pointer-events:all; } line { stroke-linecap:round; } polygon { stroke-linejoin:round; } </style>
  <text x="144.95" y="110.67" stroke="none" font-size="14" fill="rgb(48,80,248)">N</text>
  <text x="123.77" y="74.67" stroke="none" font-size="14" fill="rgb(255,13,13)">O</text>
  <line x1="131.01" y1="95.04" x2="131.01" y2="77" stroke="rgb(0,0,0)" stroke-width="1.44" />
  <line x1="127.41" y1="95.04" x2="127.41" y2="77" stroke="rgb(0,0,0)" stroke-width="1.44" />
  <line x1="191.57" y1="106" x2="170.79" y2="94" stroke="rgb(0,0,0)" stroke-width="1.44" />
  <line x1="170.79" y1="94" x2="170.79" y2="70" stroke="rgb(0,0,0)" stroke-width="1.44" />
  <line x1="170.79" y1="94" x2="156.06" y2="102.5" stroke="rgb(0,0,0)" stroke-width="1.44" />
  <line x1="150" y1="113" x2="150" y2="130" stroke="rgb(0,0,0)" stroke-width="1.44" />
  <line x1="143.95" y1="102.51" x2="129.21" y2="94" stroke="rgb(0,0,0)" stroke-width="1.44" />
  <line x1="129.21" y1="94" x2="108.43" y2="106" stroke="rgb(0,0,0)" stroke-width="1.44" />
  <line id="mol57:Bond:5" class="event" x1="129.21" y1="94" x2="129.21" y2="70" stroke-width="8" opacity="0" />
  <line id="mol57:Bond:0" class="event" x1="191.57" y1="106" x2="170.79" y2="94" stroke-width="8" opacity="0" />
  <line id="mol57:Bond:1" class="event" x1="170.79" y1="94" x2="170.79" y2="70" stroke-width="8" opacity="0" />
  <line id="mol57:Bond:2" class="event" x1="170.79" y1="94" x2="150" y2="106" stroke-width="8" opacity="0" />
  <line id="mol57:Bond:3" class="event" x1="150" y1="106" x2="150" y2="130" stroke-width="8" opacity="0" />
  <line id="mol57:Bond:4" class="event" x1="150" y1="106" x2="129.21" y2="94" stroke-width="8" opacity="0" />
  <line id="mol57:Bond:6" class="event" x1="129.21" y1="94" x2="108.43" y2="106" stroke-width="8" opacity="0" />
  <circle id="mol57:Atom:0" class="event" cx="191.57" cy="106" r="8" opacity="0" />
  <circle id="mol57:Atom:1" class="event" cx="170.79" cy="94" r="8" opacity="0" />
  <circle id="mol57:Atom:2" class="event" cx="170.79" cy="70" r="8" opacity="0" />
  <circle id="mol57:Atom:3" class="event" cx="150" cy="106" r="8" opacity="0" />
  <circle id="mol57:Atom:4" class="event" cx="150" cy="130" r="8" opacity="0" />
  <circle id="mol57:Atom:5" class="event" cx="129.21" cy="94" r="8" opacity="0" />
  <circle id="mol57:Atom:6" class="event" cx="129.21" cy="70" r="8" opacity="0" />
  <circle id="mol57:Atom:7" class="event" cx="108.43" cy="106" r="8" opacity="0" />
</svg>