<svg id="mol59" xmlns="http://www.w3.org/2000/svg" version="1.1" width="98px" height="94px" viewBox="101 50 98 94">
  <style> text {font-family: sans-serif;} #mol59 { pointer-events:none; } #mol59 .event  { pointer-events:all; } line { stroke-linecap:round; } polygon { stroke-linejoin:round; } </style>
  <text x="165.34" y="68.67" stroke="none" font-size="14" fill="rgb(255,13,13)">O</text>
  <text x="144.95" y="104.67" stroke="none" font-size="14" fill="rgb(48,80,248)">N</text>
  <line x1="172.59" y1="89.04" x2="172.59" y2="71" stroke="rgb(0,0,0)" stroke-width="1.44" />
  <line x1="168.99" y1="89.04" x2="168.99" y2="71" stroke="rgb(0,0,0)" stroke-width="1.44" />
  <line x1="191.57" y1="100" x2="170.79" y2="88" stroke="rgb(0,0,0)" stroke-width="1.44" />
  <line x1="170.79" y1="88" x2="156.06" y2="96.5" stroke="rgb(0,0,0)" stroke-width="1.44" />
  <line x1="150" y1="107" x2="150" y2="124" stroke="rgb(0,0,0)" stroke-width="1.44" />
  <line x1="150" y1="124" x2="170.79" y2="136" stroke="rgb(0,0,0)" stroke-width="1.44" />
  <line x1="143.95" y1="96.51" x2="129.21" y2="88" stroke="rgb(0,0,0)" stroke-width="1.44" />
  <line x1="129.21" y1="88" x2="108.43" y2="100" stroke="rgb(0,0,0)" stroke-width="1.44" />
  <line id="mol59:Bond:1" class="event" x1="170.79" y1="88" x2="170.79" y2="64" stroke-width="8" opacity="0" />
  <line id="mol59:Bond:0" class="event" x1="191.57" y1="100" x2="170.79" y2="88" stroke-width="8" opacity="0" />
  <line id="mol59:Bond:2" class="event" x1="170.79" y1="88" x2="150" y2="100" stroke-width="8" opacity="0" />
  <line id="mol59:Bond:3" class="event" x1="150" y1="100" x2="150" y2="124" stroke-width="8" opacity="0" />
  <line id="mol59:Bond:4" class="event" x1="150" y1="124" x2="170.79" y2="136" stroke-width="8" opacity="0" />
  <line id="mol59:Bond:5" class="event" x1="150" y1="100" x2="129.21" y2="88" stroke-width="8" opacity="0" />
  <line id="mol59:Bond:6" class="event" x1="129.21" y1="88" x2="108.43" y2="100" stroke-width="8" opacity="0" />
  <circle id="mol59:Atom:0" class="event" cx="191.57" cy="100" r="8" opacity="0" />
  <circle id="mol59:Atom:1" class="event" cx="170.79" cy="88" r="8" opacity="0" />
  <circle id="mol59:Atom:2" class="event" cx="170.79" cy="64" r="8" opacity="0" />
  <circle id="mol59:Atom:3" class="event" cx="150" cy="100" r="8" opacity="0" />
  <circle id="mol59:Atom:4" class="event" cx="150" cy="124" r="8" opacity="0" />
  <circle id="mol59:Atom:5" class="event" cx="170.79" cy="136" r="8" opacity="0" />
  <circle id="mol59:Atom:6" class="event" cx="129.21" cy="88" r="8" opacity="0" />
  <circle id="mol59:Atom:7" class="event" cx="108.43" cy="100" r="8" opacity="0" />
</svg>