<svg id="mol60" xmlns="http://www.w3.org/2000/svg" version="1.1" width="98px" height="82px" viewBox="101 63 98 82">
  <style> text {font-family: sans-serif;} #mol60 { pointer-events:none; } #mol60 .event  { pointer-events:all; } line { stroke-linecap:round; } polygon { stroke-linejoin:round; } </style>
  <text x="144.56" y="134.67" stroke="none" font-size="14" fill="rgb(255,13,13)">O</text>
  <text x="124.16" y="98.67" stroke="none" font-size="14" fill="rgb(48,80,248)">N</text>
  <line x1="148.2" y1="104.96" x2="148.2" y2="123" stroke="rgb(0,0,0)" stroke-width="1.44" />
  <line x1="151.8" y1="104.96" x2="151.8" y2="123" stroke="rgb(0,0,0)" stroke-width="1.44" />
  <line x1="191.57" y1="106" x2="170.79" y2="94" stroke="rgb(0,0,0)" stroke-width="1.44" />
  <line x1="170.79" y1="94" x2="170.79" y2="70" stroke="rgb(0,0,0)" stroke-width="1.44" />
  <line x1="170.79" y1="94" x2="150" y2="106" stroke="rgb(0,0,0)" stroke-width="1.44" />
  <line x1="150" y1="106" x2="135.27" y2="97.49" stroke="rgb(0,0,0)" stroke-width="1.44" />
  <line x1="129.21" y1="87" x2="129.21" y2="70" stroke="rgb(0,0,0)" stroke-width="1.44" />
  <line x1="123.16" y1="97.5" x2="108.43" y2="106" stroke="rgb(0,0,0)" stroke-width="1.44" />
  <line id="mol60:Bond:3" class="event" x1="150" y1="106" x2="150" y2="130" stroke-width="8" opacity="0" />
  <line id="mol60:Bond:0" class="event" x1="191.57" y1="106" x2="170.79" y2="94" stroke-width="8" opacity="0" />
  <line id="mol60:Bond:1" class="event" x1="170.79" y1="94" x2="170.79" y2="70" stroke-width="8" opacity="0" />
  <line id="mol60:Bond:2" class="event" x1="170.79" y1="94" x2="150" y2="106" stroke-width="8" opacity="0" />
  <line id="mol60:Bond:4" class="event" x1="150" y1="106" x2="129.21" y2="94" stroke-width="8" opacity="0" />
  <line id="mol60:Bond:5" class="event" x1="129.21" y1="94" x2="129.21" y2="70" stroke-width="8" opacity="0" />
  <line id="mol60:Bond:6" class="event" x1="129.21" y1="94" x2="108.43" y2="106" stroke-width="8" opacity="0" />
  <circle id="mol60:Atom:0" class="event" cx="191.57" cy="106" r="8" opacity="0" />
  <circle id="mol60:Atom:1" class="event" cx="170.79" cy="94" r="8" opacity="0" />
  <circle id="mol60:Atom:2" class="event" cx="170.79" cy="70" r="8" opacity="0" />
  <circle id="mol60:Atom:3" class="event" cx="150" cy="106" r="8" opacity="0" />
  <circle id="mol60:Atom:4" class="event" cx="150" cy="130" r="8" opacity="0" />
  <circle id="mol60:Atom:5" class="event" cx="129.21" cy="94" r="8" opacity="0" />
  <circle id="mol60:Atom:6" class="event" cx="129.21" cy="70" r="8" opacity="0" />
  <circle id="mol60:Atom:7" class="event" cx="108.43" cy="106" r="8" opacity="0" />
</svg>