<svg id="mol61" xmlns="http://www.w3.org/2000/svg" version="1.1" width="119px" height="82px" viewBox="91 56 119 82">
  <style> text {font-family: sans-serif;} #mol61 { pointer-events:none; } #mol61 .event  { pointer-events:all; } line { stroke-linecap:round; } polygon { stroke-linejoin:round; } </style>
  <text x="154.95" y="74.67" stroke="none" font-size="14" fill="rgb(255,13,13)">O</text>
  <text x="134.56" y="110.67" stroke="none" font-size="14" fill="rgb(48,80,248)">N</text>
  <line x1="162.19" y1="95.04" x2="162.19" y2="77" stroke="rgb(0,0,0)" stroke-width="1.44" />
  <line x1="158.59" y1="95.04" x2="158.59" y2="77" stroke="rgb(0,0,0)" stroke-width="1.44" />
  <line x1="201.96" y1="94" x2="181.18" y2="106" stroke="rgb(0,0,0)" stroke-width="1.44" />
  <line x1="181.18" y1="106" x2="160.39" y2="94" stroke="rgb(0,0,0)" stroke-width="1.44" />
  <line x1="160.39" y1="94" x2="145.66" y2="102.5" stroke="rgb(0,0,0)" stroke-width="1.44" />
  <line x1="139.61" y1="113" x2="139.61" y2="130" stroke="rgb(0,0,0)" stroke-width="1.44" />
  <line x1="133.56" y1="102.51" x2="118.82" y2="94" stroke="rgb(0,0,0)" stroke-width="1.44" />
  <line x1="118.82" y1="94" x2="98.04" y2="106" stroke="rgb(0,0,0)" stroke-width="1.44" />
  <line id="mol61:Bond:2" class="event" x1="160.39" y1="94" x2="160.39" y2="70" stroke-width="8" opacity="0" />
  <line id="mol61:Bond:0" class="event" x1="201.96" y1="94" x2="181.18" y2="106" stroke-width="8" opacity="0" />
  <line id="mol61:Bond:1" class="event" x1="181.18" y1="106" x2="160.39" y2="94" stroke-width="8" opacity="0" />
  <line id="mol61:Bond:3" class="event" x1="160.39" y1="94" x2="139.61" y2="106" stroke-width="8" opacity="0" />
  <line id="mol61:Bond:4" class="event" x1="139.61" y1="106" x2="139.61" y2="130" stroke-width="8" opacity="0" />
  <line id="mol61:Bond:5" class="event" x1="139.61" y1="106" x2="118.82" y2="94" stroke-width="8" opacity="0" />
  <line id="mol61:Bond:6" class="event" x1="118.82" y1="94" x2="98.04" y2="106" stroke-width="8" opacity="0" />
  <circle id="mol61:Atom:0" class="event" cx="201.96" cy="94" r="8" opacity="0" />
  <circle id="mol61:Atom:1" class="event" cx="181.18" cy="106" r="8" opacity="0" />
  <circle id="mol61:Atom:2" class="event" cx="160.39" cy="94" r="8" opacity="0" />
  <circle id="mol61:Atom:3" class="event" cx="160.39" cy="70" r="8" opacity="0" />
  <circle id="mol61:Atom:4" class="event" cx="139.61" cy="106" r="8" opacity="0" />
  <circle id="mol61:Atom:5" class="event" cx="139.61" cy="130" r="8" opacity="0" />
  <circle id="mol61:Atom:6" class="event" cx="118.82" cy="94" r="8" opacity="0" />
  <circle id="mol61:Atom:7" class="event" cx="98.04" cy="106" r="8" opacity="0" />
</svg>